#format: frame checksums
#version: 2
#hash: MD5
#tb 0: 1001/30000
#media_type 0: video
#codec_id 0: rawvideo
#dimensions 0: 34x32
#sar 0: 1/1
#stream#, dts,        pts, duration,     size, hash
0,          0,          0,        1,     1632, 7e334867e27046fabf0f39365311c38c
0,          1,          1,        1,     1632, d2a49216ecedea62f546e54c1552f163
0,          2,          2,        1,     1632, f66e10d1779533e5b6e2b98369134833
0,          3,          3,        1,     1632, 0054b8d4393df58eee87784862a29901
0,          4,          4,        1,     1632, b9cdf3ebea0d1e3f1e0c42db2e11a3c2
0,          5,          5,        1,     1632, c08a728d955a559457c82e44c3296148
0,          6,          6,        1,     1632, d05f4c4a8b0e606525c3d388d26a9351
0,          7,          7,        1,     1632, 78fc2544da88a1a21d6626b0f7bbcf8c
0,          8,          8,        1,     1632, 90832c4fed05390377551359bb9a91f7
0,          9,          9,        1,     1632, 5290a0e77081863398f36c7ae192710b
